<svg xmlns="http://www.w3.org/2000/svg" width="200" height="37.739" viewBox="0 0 200 37.739">
	<path fill="#C6C6C6" d="M192.674 7.996c-.119 0-.605-.302-.605-.485 0-.061 0-.121.061-.121h.063c.119 0 .363.424.482.544v.062zm5.025 25.808c0 .061-.24.425-.422.425-.121 0-.303-.063-.303-.183 0-.06.182-.12.303-.12s.361-.183.422-.183v.061zm-10.844-25.99c0-.061-.303-.061-.426-.061-.121 0-.121.181-.121.242 0 .12.061.181.184.181.119.001.363-.301.363-.362m.965-.243c0-.241-.422-.302-.604-.302-.061 0-.121.061-.121.061l-.061.06c0 .121.484.363.424.303l.121.121c.06 0 .241-.18.241-.243m3.825 28.653c.061.123-.67.424-1.275.424-.363 0-.666-.061-.848-.362v-.062c0-.062.061-.062.121-.062.242 0 .727.123 1.029.123.303-.062.668-.183.852-.183.06.001.121.001.121.122m5.027-1.693c0 .424-1.877 1.331-3.33 1.632.607-.665.729-.726.969-.726h.303c.121 0 .305 0 .545-.06.605-.12 1.029-1.088 1.33-1.088.061 0 .123.06.184.181v.061zM200 15.081c0-2.365-1.33-4.485-3.148-6.058-1.207-1.027-2.842-1.935-4.42-1.935-.545 0-1.029.06-1.518.302v-.12c0-.363-.242-.424-.545-.424h-.727c-.121.363-.363.485-.547.485-.363 0-.789-.424-1.033-.424-.119 0-.18.122-.242.424 0 0 .305.181.365.363v.06c0 .121-.123.181-.303.181h-.848c-.242.302-.482.362-.727.362l-.727-.06c-.301 0-.543.06-.785.485-.969.786-.547 2.48-1.938 2.662-.424 1.394-1.33 2.605-1.33 4.122 0 .243 0 .483.061.727.725 4.001 4.84 6.729 8.232 8.305 1.215 1.211 3.215 1.394 3.762 3.151l.063.244c.121.423.303.97.303 1.454 0 .485-.182.909-.668 1.272-.547.364-1.273.728-2 .728-.244 0-.486-.062-.67-.121-1.697-.607-3.031-2.123-3.455-3.819-.727-.545-1.514-.667-2.359-.667l-1.574.061a7.44 7.44 0 0 1-1.209-.121c-.607.06-1.031.606-1.031 1.213 0 .12 0 .303.061.423.607 2.122 1.15 4.785 3.088 6.057h.061l.543-.304c.063 0 .063.06.063.122v.061c0 1.633 2.119 1.392 3.086 2.298.85.121 1.76.242 2.668.242 2.973 0 5.758-.847 7.875-2.965.244-1.028.908-1.876 1.271-2.784.059-.18.121-.302.121-.484l-.063-.909c0-.243 0-.424.182-.606 0 0 0-2.363-.482-3.696-1.029-3.091-3.75-4.001-5.871-5.818-1.939-.667-3.699-2.001-5.277-3.213l-.182-.182-.182-.122c-.061-.182-.123-.365-.123-.545 0-.546.305-1.153.305-1.758a1.65 1.65 0 0 0-.182-.728c.605-1.15 1.76-1.817 2.852-1.817.303 0 .545.06.85.182 1.576.545 3.453 1.878 3.453 3.878v.121c.666.063 1.33.123 2.059.123.482 0 1.088-.06 1.754-.123H200v-.305zm-39.994-6.659h-.063c0 .304-.18.364-.363.364-.24 0-.543-.121-.664-.243v-.061c0-.12.363-.243.664-.243.244 0 .426.063.426.183m13.57.424c-.365.243-.787.243-1.211.243h-.424c.121-.303.303-.424.547-.424l1.088.181zm2.24.546l-.305-.486-.666.363c-.184-.06-.303-.18-.303-.363l.061-.241c-.969-.426-2.238-.303-3.268-.426-.24.123-.303.183-.303.303l.303.546c0 .12-.059.18-.24.303-.063.06-.121.12-.182.12-.244 0-.182-.546-.424-.667l-.607.303c-.061.06-.061.12-.061.182 0 .242.305.425.363.605-.119.546-.119 1.091-.119 1.636 0 1.394.24 2.788.363 3.938v6.846c0 2.788-.063 5.515-.486 8.362-.969 1.877-2.973 1.938-4.789 1.938-1.455-.546-2.245-2.061-2.426-3.575V16.48c0-1.757 0-3.515.061-5.332.06-.425.242-1.03.242-1.516 0-.302-.063-.544-.303-.787 0 0-.303.243-.547.243-.119-.06-.119-.123-.119-.243 0-.243.18-.544.24-.667-.301-.303-.725-.303-1.148-.303-.242 0-.543 0-.727-.121-.725.484-2.115-.183-2.178.847l-.787.063v.544c0 .243 0 .485.243.546.243.12.304.363.304.544l-.304 1.273c.363.182.483.425.483.605 0 .485-.727 1.03-.727 1.697 0 .06.061.122.061.243v.243c0 .666-.304 1.393-.304 2.18 0 .484.123.909.486 1.333a2.36 2.36 0 0 0-.243 1.09c0 .79.363 1.517.666 2.303-.06.484-.363 1.031-.363 1.575 0 .242.061.485.244.727v5.758c-.061.301-.061.604-.061.908 0 .545.061 1.089.18 1.575 0 1.938 1.574 2.905 2.42 4.478l2.543.484c.303.303.667.424 1.029.424.486 0 .971-.182 1.518-.182.242 0 .545.061.789.182.363-.061.363-.424.363-.847.242-.243.424-.545.727-.545.061 0 .184.061.303.122l-.18.544h.119c.607 0 .91-.544 1.396-1.029v-.483c0-.122 0-.183.121-.183.363 0 .727-.423 1.029-.423.061 0 .184.062.244.121.059.122.059.302.059.484l-.059.907c0 .423.119.847.482 1.21.184.061.424.242.668.242.119 0 .24-.062.301-.182l-.24-.243v-.12c0-.061 0-.12.059-.12h.182c.061 0 .123 0 .182.12.061.06.121.06.121.12s-.061.122-.121.183l1.512.181c.484-.363.908-.604 1.453-.604.484-.426.605-1.028.605-1.634 0-.604-.121-1.21-.242-1.754a236.877 236.877 0 0 1-.182-9.269c.003-4.786.185-9.632.489-14.6m-30.22 27.258s0 .06-.061.06c-.122 0-.424-.12-.424-.241 0-.061.121-.061.181-.061.184 0 .243.12.304.242M146.32.606c.061.06.12.12.12.242s-.181.242-.301.242-.181-.12-.181-.242.181-.304.301-.304c.001.001.061.001.061.062m-3.083 34.288c-.243 0-.483-.482-.483-.727 0-.06.12-.12.18-.12.121 0 .363.847.363.847h-.06zm8.416-25.324c.12 0 .181.123.181.303 0 .242-.121.605-.244.605-.06-.06-.24-.484-.24-.726 0-.183 0-.243.121-.243.059.001.182.001.182.061m.728 0c-.244-1.028-.851-1.269-1.637-1.269l-2.121.18c-.727 0-1.393-.18-1.816-1.09l.363-6.482c-.063-.606-.729-.667-1.15-.91-.606 1.273-1.998 1.15-2.965 1.757-.544.303-.424 1.213-1.028 1.213-.06 0-.122-.063-.243-.063.184.667.243 1.333.243 2.061v.97c0 .666 0 1.271.181 1.877-.303.727-.848.908-1.514.908l-1.757-.182-.364.06c-.241.485-1.028.787-1.028 1.271 0 .182.06.362.303.605a3.33 3.33 0 0 0-.183.967l4.303 2.543v6.727c.06.425.06.911.06 1.333 0 2.364-.546 4.79-.546 7.457 0 4.662 2.178 8.05 6.899 8.05 1.03 0 3.273 0 3.273-.604-.123-.303-1.03-.123-1.03-.425 0-.12.24-.18.484-.18.363 0 .909.18 1.029.604.121-.243.183-.545.183-.908 0-1.937-.729-3.751-1.88-3.751l-1.816.181c-1.757 0-2.183-2.423-2.183-3.816 0-1.455.304-3.032.366-4.304-.244-.484-.304-.971-.304-1.456 0-1.211.483-2.363.483-3.516 0-.301-.061-.666-.12-.969.181-.484.181-1.03.181-1.574v-1.273c0-1.092.243-3.09 2.123-3.09l1.877.544h.18c1.031-.784.91-2.236 1.154-3.446m-21.587 2.782c-.302 0-.484-.483-.484-.787 0-.122 0-.243.122-.303h.061c.302 0 .484.485.484.789 0 .181-.061.301-.183.301M117.768 8.54c-.182.06-.363.122-.545.122-.422 0-.785-.182-.785-.182v-.12c0-.182.121-.242.24-.242.184 0 .545.18.848.18l.242-.06a.13.13 0 0 1 .121.122c0 .059-.061.18-.121.18m8.003-.786c0 .181-.363.304-.546.304-.243 0-.485.18-.667.18-.061 0-.122-.06-.122-.12-.06-.12.486-.666.912-.666.18 0 .303.06.423.242v.06zm-7.095 28.415c.061.061.061.121.061.183 0 .24-.363.42-.604.42h-.062c-.12 0-.424-.12-.605-.18.363-.122.545-.663.848-.663.242 0 .362.24.362.24m-4.479-21.756c.063-.122.184.302.184.789 0 .545-.121 1.15-.605 1.273.18-.667.06-1.395.421-2.062m13.874-5.934c-.604 0-.907-.302-1.331-.302-.121 0-.24 0-.363.06-.121-.12-.181-.24-.181-.303 0-.12.12-.241.241-.362h.182c.605.122 1.09.242 1.452.666v.241zm4.659 6.723c-.242-.364-.302-.789-.302-1.273l.06-1.151c0-.667-.121-1.273-.785-1.755v-.183c0-1.573-2.059-1.875-2.785-3.266a3.931 3.931 0 0 0-1.209-.18l-1.393.06c-.183 0-.363 0-.546-.06a5.843 5.843 0 0 0-1.395-.183c-2.124 0-3.698 1.271-5.58 1.634-.544-.122-.181-.909-.544-1.029-.787-.061-1.693-.242-2.541-.242-.727 0-1.451.122-1.995.545a12.425 12.425 0 0 0-.123 1.573c0 .482.062.966.304 1.331v.18c0 .545-.242 1.03-.242 1.454 0 .243.062.425.242.667-.363.606-.484 1.577-.484 2.727 0 1.759.242 3.76.242 5.093 0 .667-.062 1.151-.242 1.272.121 2.728.242 4.969.242 7.515v1.211c.062.303.121.605.121.908l-.303 2.85c0 .788.243 1.454 1.027 1.935.244.121.607.301.908.301.182 0 .363-.06.482-.18.485.18 1.091.361 1.635.361.545 0 1.03-.182 1.453-.543l.305-1.45c0-.241-.064-.485-.244-.666V26.11c-.061-.242-.123-.424-.123-.667l.184-1.817c0-.364-.061-.728-.304-1.091.06-.606.12-1.212.12-1.819v-3.514c0-1.577.303-3.092 1.518-4.363.729-.606 1.578-1.455 2.668-1.455.243 0 .486 0 .729.121h.061c.363 0 .363-.605.667-.605.06 0 .182.06.303.123.121.12.121.18.121.3l-.121.667v.062c1.273 1.151 1.517 2.848 1.517 4.544v7.092c-.181.303-.181.605-.181.91l.241 2.483c0 .486-.061.971-.363 1.517.182 1.15.242 2.303.242 3.452 0 1.153-.061 2.244-.303 3.455.363 1.089 1.211 1.148 2.117 1.148h.545c.546 0 1.15 0 1.574.302.727-.302 1.514-.423 1.996-1.024V23.323c0-.181.061-.363.121-.546v-6.302c-.061-.123-.121-.243-.121-.363 0-.365.304-.607.484-.91M92.116 34.834c-.242 0-.545-.363-.545-.604 0-.062 0-.123.061-.184.06-.06.12-.06.181-.06.181 0 .303.182.303.424v.424zm2.18 1.09c-.061.06-.182.06-.304.06-.242 0-.485-.06-.545-.241v-.12c0-.123.122-.183.242-.183.243 0 .607.12.607.362v.122zm4.973 1.089c0 .181-.184.302-.365.302l-.243-.062c-.06-.06-.242-.06-.242-.12v-.12c0-.183.121-.303.303-.303h.06c.243.061.424 0 .487.242v.061zm-6.79-26.657c0 .182-.303.363-.545.483l-.182.06-.181-.06c-.06 0-.122-.06-.122-.12 0-.182.364-.485.789-.485h.122c.059 0 .119.06.119.122m10.426 25.688s-.546.605-1.03.847c-.363.183-.97.362-1.333.362-.183 0-.363-.06-.423-.18-.001-.242 1.332-.06 2.786-1.029m4.235-12.841s0 .423-.12.667c-.182.363-.726.544-1.089.544-.242 0-.364-.06-.425-.182v-.06c0-.183.484-.123 1.089-.485.485-.181.183-.364.545-.545v.061zm-3.508-13.149c-.786 0-.786-1.029-1.636-1.21-1.091-.242-2.061-.726-3.214-1.029l.547-.061c1.516 0 3.394.848 4.362 2.3h-.059zm-1.21 9.995a7.554 7.554 0 0 0-1.637-.181l-4.002.243c-.79 0-1.579-.122-2.306-.364-.485-.485-.667-.969-.667-1.575 0-.97.424-2.06.485-2.97.302-1.395 1.758-2.728 3.154-3.031.241-.06.423-.06.666-.06 1.457 0 2.608 1.09 3.335 2.303.546 1.817.668 3.817.972 5.635m5.021 7.395a4.164 4.164 0 0 0-1.21-.182c-.728 0-1.454.182-2.3.182-.302 0-.665-.06-1.028-.122-2 .667-.364 3.273-2 4.425-.969.242-1.699 1.029-2.667 1.029l-.425-.061c-3.396-1.089-4.184-3.938-4.366-7.211.485-.667-.483-1.152 1.94-1.213 3.882.424 7.518.244 11.269.424l.666-.484.121-2.909c0-.424-.062-.788-.121-1.151-.365-3.456 0-7.334-2.359-9.997-1.694-1.876-4.118-3.025-6.544-3.025-1.152 0-2.305.303-3.396.849-1.637.906-3.391 1.331-4.42 3.084-1.875 3.271-2.42 6.726-2.42 10.484 0 1.151.06 2.364.121 3.577l.06.907c.122 3.941.242 7.877 4.418 10.175 1.694.969 3.817 1.514 5.939 1.514 1.637 0 3.214-.303 4.606-1.028 2.481-1.332 3.812-3.994 3.933-6.538.425-.244.546-.545.546-.911.001-.604-.363-1.272-.363-1.818M76.831 11.262c0 .06-.062.06-.122.06-.061 0-.122 0-.183-.06v-.182c0-.061.062-.061.123-.061s.242.061.242.183l-.06.06zm1.027 23.447c-.122.12-.182.12-.302.12s-.183-.12-.183-.303c0-.18.063-.364.243-.364.121 0 .242.185.242.364 0 .062 0 .121-.062.183h.062zM65.619 35.92h-.06l.06.062c0 .06-.242.121-.485.121-.242 0-.485-.062-.485-.121 0-.182.545-.242.545-.242.122 0 .244.06.425.18m1.573.062c-.121.06-.242.06-.423.06-.122 0-.545-.06-.545-.121 0-.12.787-.241 1.21-.241.121 0 .243 0 .243.061l-.485.241zM77.676 7.208c-.06 0-.12.06-.12.06l-.183.062c-.06 0 .123-.062-.482-.182-.122-.061-.365-.242-.365-.364 0-.06.062-.06.123-.06.302 0 1.088.303 1.088.424 0 0 0 .06-.061.06m4.116 28.289c.06 0 .06.06.06.06 0 .184-.544.304-.908.304-.182 0-.302-.06-.302-.12v-.061c.12-.303.423-.364.726-.364.18-.001.302.12.424.181m-28.716.363h-.06c0 .182-.06.243-.183.243l-.906-.243-.243-.181c.182-.183.485-.243.727-.243.361 0 .665.12.665.424m-.968-28.107c0 .121-.485.061-.727.302-.18.182-.243.605-.363.605-.18 0-.24-.242-.24-.423 0-.666.543-.786.906-.786.243 0 .424.12.424.302m3.086-.363c0 .122-.122.122-.363.122h-.424c-.302 0-.726 0-1.029.182h-.06s-.062 0-.062-.06c0-.243.787-.727 1.271-.727.243 0 .485.122.605.362l.062.121zm24.419.907c-.485-.423-.906-.423-.906-.604 0-.06.06-.06.181-.06.483 0 1.634.362 1.634.966 0 .122-.06.243-.12.363l-.789-.665zm-14.78-.604c-.061.121-.184.121-.304.121-.241 0-.543-.181-.847-.242-.483 0-.85.182-1.213.182-.183 0-.85-.242-.85-.242l.062-.061c.485-.243.848-.303 1.151-.303h.123c.727 0 1.152.485 1.878.545m17.746 27.501c.06-.484.06-.97.06-1.454l-.606-9.33c0-.91.06-1.758.183-2.667-.183-.847-.183-1.697-.183-2.604v-5.755c.183-.123.183-.243.183-.365 0-1.757-.364-3.391-1.333-4.842-1.512-1.209-3.387-1.997-5.267-1.997-.666 0-1.394.122-2.061.362-2.366 0-3.274 3.327-5.396 3.327-.242 0-.482-.06-.726-.12-.242-1.21-1.391-2.117-2.359-2.844l-.122-.06c-.241.06-.424.122-.665.122-.91 0-1.699-.545-2.547-.545-1.273 0-4.002 1.149-5.517 2.48-.546-.061-.667-.424-.667-.786l.121-1.029c0-.423-.727-.485-1.331-.485h-.363c-1.271 0-2.662.303-3.691.969-.06.484-.06.968-.06 1.391 0 1.027.12 2.057.363 3.088a15.207 15.207 0 0 0-.182 2.301v4c0 .303 0 .545-.062.848V31.62c.182.363.243.847.243 1.394l-.062 1.454v.242c0 .97.364 1.817 1.513 2.059.182-.362.545-.483.846-.483.425 0 .91.183 1.273.183l.544.06c.484 0 1.028-.242 1.271-.787V19.986c0-2.242.061-4.422.485-6.542.728-2 3.881-2.789 4.609-2.789 2.791 0 2.851 4.909 2.851 7.877V31.74c.061.424.061.85.061 1.273 0 .423 0 .787-.061 1.211.363.85 0 2.243 1.27 2.363 1.029-.182 2.059-.242 3.086-.242h.967a5.023 5.023 0 0 0 .427-2.06c0-.909-.184-1.758-.366-2.605V16.17c.426-2.485 1.152-5.212 4.731-5.212 3.153 0 2.486 4.484 3.093 6.241l-.242 3.573c0 .546.06 1.032.242 1.577-.06.667-.06 1.271-.06 1.938v6.544c.06.544.12 1.09.12 1.575 0 .787-.12 1.576-.242 2.363.242.242.422.545.422.849l.063.121c.422 0 .422-.606.604-.606h.06c.182.061.182.182.243.303l-.242.667c0 .06.062.182.243.242.424-.061.848-.061 1.33-.061 1.149.001 2.3.001 2.906-1.09m-53.583-.36c-.242 0-.545-.363-.545-.604 0-.062 0-.123.063-.184.061-.06.121-.06.181-.06.182 0 .302.182.302.424v.424zm2.179 1.09c-.06.06-.182.06-.303.06-.242 0-.483-.06-.544-.241v-.12c0-.123.121-.183.242-.183.242 0 .605.12.605.362v.122zm4.975 1.089c0 .181-.183.302-.366.302l-.243-.062c-.06-.06-.24-.06-.24-.12v-.12c0-.183.12-.303.303-.303h.061c.243.061.423 0 .486.242v.061zm-6.789-26.657c0 .182-.303.363-.546.483l-.18.06-.183-.06c-.06 0-.12-.06-.12-.12 0-.182.363-.485.787-.485h.122c.059 0 .12.06.12.122m10.425 25.688s-.546.605-1.03.847c-.365.183-.97.362-1.333.362-.183 0-.365-.06-.425-.18 0-.242 1.334-.06 2.788-1.029m4.235-12.841s0 .423-.122.667c-.181.363-.725.544-1.089.544-.242 0-.362-.06-.422-.182v-.06c0-.183.483-.123 1.087-.485.484-.181.183-.364.545-.545v.061zm-3.508-13.149c-.788 0-.788-1.029-1.637-1.21-1.09-.242-2.06-.726-3.212-1.029l.546-.061c1.515 0 3.395.848 4.363 2.3h-.06zm-1.21 9.995a7.556 7.556 0 0 0-1.638-.181l-4.002.243a7.338 7.338 0 0 1-2.304-.364c-.486-.485-.667-.969-.667-1.575 0-.97.424-2.06.484-2.97.303-1.395 1.759-2.728 3.154-3.031.244-.06.425-.06.668-.06 1.456 0 2.608 1.09 3.334 2.303.544 1.817.668 3.817.971 5.635m5.02 7.395a4.157 4.157 0 0 0-1.209-.182c-.726 0-1.453.182-2.3.182-.301 0-.664-.06-1.028-.122-2 .667-.363 3.273-2 4.425-.97.242-1.699 1.029-2.669 1.029l-.425-.061c-3.396-1.089-4.184-3.938-4.365-7.211.484-.667-.483-1.152 1.94-1.213 3.882.424 7.518.244 11.268.424l.667-.484.12-2.909c0-.424-.06-.788-.12-1.151-.364-3.456 0-7.334-2.358-9.997-1.694-1.876-4.119-3.025-6.543-3.025-1.153 0-2.306.303-3.396.849-1.637.906-3.391 1.331-4.421 3.084-1.875 3.271-2.418 6.726-2.418 10.484 0 1.151.06 2.364.12 3.577l.06.907c.12 3.941.242 7.877 4.417 10.175 1.695.969 3.818 1.514 5.94 1.514 1.637 0 3.213-.303 4.606-1.028 2.48-1.332 3.811-3.994 3.931-6.538.425-.244.546-.545.546-.911.002-.604-.363-1.272-.363-1.818M4.176 32.959c0 .12 0 .303-.244.303-.18 0-.24-.123-.24-.303 0-.121.12-.183.301-.183.062.001.183.062.183.183m9.88 2.965c-.062.24-.182.424-.425.483h-.303c-.061 0-.061-.06-.061-.06 0-.123.546-.485.727-.485l.062-.061c.061.001 0 .062 0 .123M2.238 13.322c-.061.062-.181.062-.302.062-.303 0-.485-.303-.485-.606 0-.182.062-.363.243-.363.242 0 .605.425.605.667l.062-.062c0 .06-.062.242-.123.302m13.273 1.697c.06.062.121.243.121.364 0 .243-.121.546-.181.546-.243-.546-.97-2.06-.97-2.545 0-.062.061-.122.061-.122l.06-.06c.182 0 .302 1.273.909 1.817m-1.88-7.206c.061.06.183.12.183.183 0 .06-.063.12-.183.12-.546 0-2.001-1.089-2.849-1.089-1.699 0-3.82 1.089-4.549 1.089-.18 0-.303-.06-.303-.243 0-.483 1.638-.726 2.606-.726l.303-.061c.912-.12 1.699-.302 2.427-.302.727.002 1.759.122 2.365 1.029M12.6 36.528c0 .546-1.213.546-2 .546h-.182c-2.973 0-6.002-2.844-6.002-3.086 0-.121.06-.243.243-.243h.06c1.211 0 1.454 1.452 2.605 2.118.971.545 2.607 0 3.396.665a.462.462 0 0 0 .303.122c.425 0 .97-.485 1.273-.485.122 0 .182.061.242.184l.062.179zm7.507-10.658a3.745 3.745 0 0 0-1.15-.184l-2.541.244c-.242 0-.484 0-.725-.06-.544.303-.666.787-.666 1.333v1.091c0 1.94-1.941 2.97-3.457 3.757l-.666.243c-1.821 0-3.519-1.03-4.306-2.667-.122-1.333-.91-2.546-.91-3.941 0-.303 0-.667.122-1.029-.183-.667-.243-1.333-.243-2l.486-5.212c.483-2.303.667-6.001 4.486-6.001 2.972 0 4.487 3.758 4.487 5.273.302.062.545.062.846.062 1.09 0 2.18-.303 3.147-.303.302 0 .545.06.786.242a9.52 9.52 0 0 0 .123-1.334c0-4.484-4.295-9.142-8.903-9.142-.303 0-.605 0-.909.061-2.364.965-5.335-.123-6.604 2.781-.425.544-1.272.727-1.272 1.271 0 .122.061.302.183.544.724-.967.846-1.028 1.995-1.451-2.6 2.118-2.238 2.663-2.298 2.663s-.242-.182-.423-.363c-.122.303-.787.667-.787 1.151 0 .12.06.303.243.485C.727 15.748 0 18.415 0 21.263v2.424c.484 1.879-.243 3.939 1.391 5.212.182-.241.182-.485.363-.485.243 0 .423.183.423.304 0 .484-.665 1.029-.787 1.151l.847 1.271c0 .367-.484.367-.544.607.122.122.242.183.363.183l.484-.061c.363 0 .604.364.604.604 0 .242-.544.121-.544.425 0 .061 0 .12.06.181v.06c0 .364.363.485.545.728-.061.241-.122.424-.122.545 0 1.027 1.694.665 2.301 1.451 0 .847.483 1.028 1.03 1.028l1.454-.061c.85.605 1.819.908 2.851.908 6.727.001 9.208-6.535 9.388-11.868"/>
</svg>
